<?xml version="1.0" encoding="UTF-8"?>
<svg xmlns="http://www.w3.org/2000/svg" version="1.1" viewBox="0 0 218 218">
  <defs>
    <style>
      .cls-1 {
        fill: #591420;
      }

      .cls-2 {
        fill: #fae4a7;
        stroke: #c14d27;
        stroke-miterlimit: 10;
        stroke-width: 8px;
      }
    </style>
  </defs>
  <!-- Generator: Adobe Illustrator 28.7.2, SVG Export Plug-In . SVG Version: 1.2.0 Build 154)  -->
  <g>
    <g id="IM-Logo">
      <circle id="Circle" class="cls-2" cx="109" cy="109" r="98.8"/>
      <path id="Letter-I" class="cls-1" d="M65.2,61.3c-3.1,0-5.3.8-6.5,2.1-1.2,1.3-1.9,3.2-2,5.4s-.2,4.9-.2,8v53.7c0,2.3,0,4.2,0,5.9,0,1.6-.1,3-.3,4.1,1.5,0,3-.2,4.5-.3,1.5,0,3-.2,4.5-.3v5.6h-28.4v-4.2c3.2-.2,5.4-.9,6.6-2.2,1.2-1.3,1.8-3.1,2-5.4.1-2.3.2-4.9.2-7.9v-54.6c0-1.7,0-3.3.1-4.9,0-1.6.2-3,.3-4.2-1.5,0-3,.2-4.5.3-1.5,0-3,.2-4.5.3v-5.6h28.4v4.2Z"/>
      <path id="Letter-M" class="cls-1" d="M126.8,146.8c-3.7-8.4-7.5-16.8-11.2-25.2-3.8-8.4-7.5-16.9-11.1-25.5-1.2-2.7-2.3-5.4-3.5-8.1-1.1-2.7-2.2-5.5-3.3-8.3-1.1-2.8-2.1-5.6-3.2-8.3,0,.9,0,1.9,0,2.8,0,.9,0,1.9,0,2.8,0,3-.2,6.7-.3,10.9-.1,4.3-.3,8.8-.4,13.6-.2,4.8-.3,9.7-.4,14.5,0,4.8-.2,9.4-.3,13.7,0,1.9-.1,3.7-.2,5.6,0,1.9-.1,3.6-.3,5.2,1.6,0,3.2-.2,4.7-.3,1.6,0,3.1-.2,4.7-.3v5.6h-24.1v-4.2c2.6,0,4.5-.7,5.7-1.7,1.2-1.1,2-2.5,2.3-4.2.3-1.8.5-3.7.6-5.7l2.4-57.6c0-1.7.1-3.4.2-5.1,0-1.7.1-3.3.2-4.9-1.5,0-3,.1-4.5.2-1.5,0-3,.1-4.5.2v-5.4h19.3l21.7,50.2c1.1,2.5,2.2,5.1,3.2,7.6,1.1,2.5,2.1,5.1,3.3,7.6,1.1,2.5,2.3,5.1,3.3,7.7h.3c.9-2.3,2-5,3.3-8.2,1.3-3.2,2.3-5.9,3.2-8.1,3.7-9.3,7.6-18.6,11.6-27.9,4-9.3,7.9-18.9,11.8-28.9h18.7v4.2c-2.1,0-3.8.3-5.2,1.2-1.3.9-2.3,2.3-2.9,4.4-.6,2-.8,4.8-.6,8.2l3.3,57.5c.2,1.4.3,2.8.3,4.2v3.7c1.5,0,3.1-.1,4.6-.2,1.6,0,3.1-.1,4.6-.2v5.6h-28.3v-4.2c2.6,0,4.5-.7,5.8-1.9,1.3-1.2,2-2.9,2.3-5.1.3-2.2.4-4.9.2-8.1l-2.5-41.7c0-1.3-.2-2.7-.3-4,0-1.3-.2-2.7-.3-4,0-1.3-.2-2.7-.3-4-.3.6-.5,1.2-.8,1.9-.3.7-.6,1.4-.8,2.1l-28.4,70.3h-3.8Z"/>
    </g>
  </g>
</svg>